#!OML:ASF E:/inclinewalkrobotboard/Project1/Captureday1/Session1/subject1.ASF
:FULLY-SPECIFIED
:DEGREES
101
root 0 0 0 -0.39359585680081943 -2.0236966324444987 -3.8763007189921193
lowerback 16.4249199848941 1.1207829013906956 -0.1034614860541394
upperback 0.7234528676752495 1.4718339334803352 0.3353253074291759
thorax -8.509394778516857 0.6981404084486724 0.05004403885055386
lowerneck -7.458208564918693 -3.2806874986242396 1.2417598809657622
upperneck -5.396358433068791 -4.27113430237665 1.8016234197984946
head -0.5358268934160932 -2.2039195915153402 0.26132252526421745
rclavicle -3.7758540320177897E-16 1.4931892326573104E-17
rhumerus 12.021530899029457 0.45742295610178196 -39.514217252580764
rradius 118.60125306491688
rwrist -30.72608495061413
rhand -11.693464800372132 -36.45443346606987
rfingers 7.125019999999963
rthumb 14.390687511767648 -65.87326357567771
lclavicle -4.21658957009425E-16 -4.734843972706945E-16
lhumerus -43.21317570516116 -0.3951026888476967 83.13107572122108
lradius 45.09528264514788
lwrist 2.0132253702901344
lhand -15.73023940679519 -11.747298030256264
lfingers 7.12501999999993
lthumb 10.418798522507437 17.37364942904029
rfemur -2.829193230366693 1.053370720544984 5.6586912251111645
rtibia 8.47001691789318
rfoot -1.5959376317612182 -1.3812452375894013
rtoes 0.8114558935319416
lfemur -6.529005782063601 -3.5601380725181153 -12.266017830963516
ltibia 27.43584191311013
lfoot -19.210744837214875 7.921608561372924
ltoes -43.14301100004566
102
root 0 0 0 -0.3947706517266327 -2.0230577749670626 -3.877840535494568
lowerback 16.423963004579598 1.1250765722850944 -0.10093034430719239
upperback 0.7242555480846696 1.478049112178359 0.3342851641991238
thorax -8.50764873034233 0.7010819378868002 0.046789537845213336
lowerneck -7.461518049384859 -3.285713726814432 1.235135533016122
upperneck -5.377890437950949 -4.279383724868556 1.8104577338947248
head -0.5289673427014696 -2.2070690502007286 0.26423608043127683
rclavicle -3.7951293423191344E-16 1.4928131167126828E-17
rhumerus 12.025597466277304 0.4435011188795954 -39.51492963452883
rradius 118.5850313311281
rwrist -30.718971914417104
rhand -11.699878782304605 -36.42454544921476
rfingers 7.125019999999963
rthumb 14.384713187830148 -65.84466730800726
lclavicle -4.2277962709910395E-16 -4.728478489904343E-16
lhumerus -43.21122274374571 -0.3939234508497569 83.13223677362728
lradius 45.090864431460375
lwrist 2.01154760980761
lhand -15.731446571973347 -11.74338618052451
lfingers 7.12501999999993
lthumb 10.417707024841945 17.3777516238855
rfemur -2.820470204335722 1.0499179406872055 5.640505915626788
rtibia 8.443374078908978
rfoot -1.590503557759423 -1.3768759089488758
rtoes 0.8091315957598115
lfemur -6.528682361359027 -3.5599259995647055 -12.267054445931162
ltibia 27.435346205690387
lfoot -19.209563052179067 7.9203647387808225
ltoes -43.13908910615186
103
root 0 0 0 -0.3958056463613293 -2.023838945695847 -3.875384560071154
lowerback 16.427344700047996 1.1213143592891688 -0.10351841924281124
upperback 0.7221089016861745 1.4727261260118722 0.3351994655538636
thorax -8.511878805293968 0.6984562584708555 0.04979601411423795
lowerneck -7.466166707282348 -3.2825649700866135 1.2392162192868303
upperneck -5.4007334069547355 -4.273401227326961 1.8019319637233744
head -0.5352859211494225 -2.2050108299151114 0.2614753207341871
rclavicle -3.7927986860447996E-16 1.4096843224767632E-17
rhumerus 12.017098107798155 0.427577818629544 -39.527106052389094
rradius 118.54863111396831
rwrist -30.69984008117036
rhand -11.706020281256682 -36.389263169080536
rfingers 7.125019999999963
rthumb 14.378966968004585 -65.81077006004173
lclavicle -4.2171268024761014E-16 -4.732648327329591E-16
lhumerus -43.21170818002896 -0.39376196692290844 83.13196453661395
lradius 45.090936910488345
lwrist 2.0116025796699937
lhand -15.730719266472232 -11.745651487245874
lfingers 7.12501999999993
lthumb 10.418392460100694 17.376214027847688
rfemur -2.82372933593608 1.0508999389315268 5.6463690612836395
rtibia 8.453967059304667
rfoot -1.5918736887721163 -1.3780237204288457
rtoes 0.8099022586848361
lfemur -6.530326388794102 -3.558785200559305 -12.26989671585443
ltibia 27.43970001582556
lfoot -19.203214757004393 7.915265159947387
ltoes -43.122697347704516
104
root 0 0 0 -0.3942134916893719 -2.0241189830415216 -3.875777750012013
lowerback 16.429902377443707 1.1194299661897615 -0.1047029719170175
upperback 0.7210211832761542 1.4699024999443382 0.33516238850654545
thorax -8.51462092105823 0.6971436392881418 0.05061976654998923
lowerneck -7.461405859246029 -3.280018435496813 1.2442188939481311
upperneck -5.422457769693896 -4.269287278738498 1.79762423242031
head -0.5437435468466489 -2.2035322643181834 0.2599966622750536
rclavicle -3.7812213235354894E-16 1.460407931246072E-17
rhumerus 12.017478569406833 0.44739906417465036 -39.520390194533974
rradius 118.58117132703434
rwrist -30.716141846559893
rhand -11.697424078926575 -36.43219517444979
rfingers 7.125019999999963
rthumb 14.38694226914723 -65.85166366029299
lclavicle -4.205978568351554E-16 -4.731670204596836E-16
lhumerus -43.21714995902734 -0.3943466064807186 83.13169054768501
lradius 45.09956381585827
lwrist 2.01057468727764
lhand -15.725991673003584 -11.760473656906779
lfingers 7.12501999999993
lthumb 10.422918445791304 17.360665233497194
rfemur -2.8244343018951668 1.051430597439485 5.648814042466025
rtibia 8.456411042993098
rfoot -1.592826613625141 -1.3787535713743093
rtoes 0.8101088435999257
lfemur -6.52916085077644 -3.5600298520451106 -12.266662161175285
ltibia 27.4362994087067
lfoot -19.209687418511322 7.920630182712202
ltoes -43.13967100622014
